<svg width="88" height="128" viewBox="0 0 88 128" fill="none" xmlns="http://www.w3.org/2000/svg">
<path d="M19.0781 103.128C19.0781 103.544 19.1208 103.933 19.2061 104.296C19.3021 104.659 19.4408 104.973 19.6221 105.24C19.8141 105.496 20.0541 105.699 20.3421 105.848C20.6408 105.997 20.9928 106.072 21.3981 106.072C21.8035 106.072 22.1501 105.997 22.4381 105.848C22.7368 105.699 22.9768 105.496 23.1581 105.24C23.3501 104.973 23.4888 104.659 23.5741 104.296C23.6701 103.933 23.7181 103.544 23.7181 103.128C23.7181 102.712 23.6701 102.328 23.5741 101.976C23.4888 101.613 23.3501 101.304 23.1581 101.048C22.9768 100.781 22.7368 100.573 22.4381 100.424C22.1501 100.275 21.8035 100.2 21.3981 100.2C20.9928 100.2 20.6408 100.275 20.3421 100.424C20.0541 100.573 19.8141 100.781 19.6221 101.048C19.4408 101.304 19.3021 101.613 19.2061 101.976C19.1208 102.328 19.0781 102.712 19.0781 103.128ZM17.7501 103.128C17.7501 102.563 17.8195 102.035 17.9581 101.544C18.1075 101.053 18.3315 100.632 18.6301 100.28C18.9288 99.9173 19.3075 99.6347 19.7661 99.432C20.2248 99.2187 20.7688 99.112 21.3981 99.112C22.0275 99.112 22.5715 99.2187 23.0301 99.432C23.4888 99.6347 23.8675 99.9173 24.1661 100.28C24.4648 100.632 24.6835 101.053 24.8221 101.544C24.9715 102.035 25.0461 102.563 25.0461 103.128C25.0461 103.693 24.9715 104.221 24.8221 104.712C24.6835 105.203 24.4648 105.629 24.1661 105.992C23.8675 106.355 23.4888 106.643 23.0301 106.856C22.5715 107.059 22.0275 107.16 21.3981 107.16C20.7688 107.16 20.2248 107.059 19.7661 106.856C19.3075 106.643 18.9288 106.355 18.6301 105.992C18.3315 105.629 18.1075 105.203 17.9581 104.712C17.8195 104.221 17.7501 103.693 17.7501 103.128ZM28.8708 106.104C29.5001 106.104 29.9481 105.992 30.2148 105.768C30.4814 105.533 30.6148 105.261 30.6148 104.952C30.6148 104.749 30.5668 104.579 30.4708 104.44C30.3748 104.291 30.2468 104.163 30.0868 104.056C29.9268 103.939 29.7401 103.843 29.5268 103.768C29.3134 103.683 29.0841 103.603 28.8388 103.528C28.4868 103.421 28.1668 103.304 27.8788 103.176C27.5908 103.048 27.3401 102.893 27.1268 102.712C26.9241 102.531 26.7641 102.317 26.6468 102.072C26.5401 101.816 26.4868 101.517 26.4868 101.176C26.4868 100.525 26.7321 100.019 27.2228 99.656C27.7241 99.2933 28.4174 99.112 29.3028 99.112C29.7401 99.112 30.1614 99.1547 30.5668 99.24C30.9828 99.3147 31.3508 99.4373 31.6708 99.608L31.3668 100.616C31.0788 100.477 30.7748 100.371 30.4548 100.296C30.1348 100.211 29.7881 100.168 29.4148 100.168C28.8388 100.168 28.4228 100.264 28.1668 100.456C27.9108 100.648 27.7828 100.888 27.7828 101.176C27.7828 101.517 27.9161 101.773 28.1828 101.944C28.4494 102.115 28.8121 102.275 29.2708 102.424C29.7081 102.563 30.0921 102.712 30.4227 102.872C30.7534 103.021 31.0254 103.197 31.2388 103.4C31.4628 103.592 31.6281 103.816 31.7348 104.072C31.8521 104.328 31.9108 104.627 31.9108 104.968C31.9108 105.629 31.6708 106.163 31.1908 106.568C30.7214 106.963 29.9694 107.16 28.9348 107.16C28.4228 107.16 27.9534 107.117 27.5268 107.032C27.1108 106.957 26.7534 106.835 26.4548 106.664L26.7588 105.656C27.0468 105.795 27.3721 105.907 27.7348 105.992C28.0974 106.067 28.4761 106.104 28.8708 106.104ZM39.0246 99.272H40.3686V107H39.2806L39.0246 105.688C38.9286 105.848 38.8006 106.019 38.6406 106.2C38.4806 106.371 38.2886 106.531 38.0646 106.68C37.8406 106.819 37.5793 106.931 37.2806 107.016C36.9926 107.112 36.6673 107.16 36.3046 107.16C35.9313 107.16 35.59 107.107 35.2806 107C34.982 106.883 34.7206 106.701 34.4966 106.456C34.2833 106.2 34.1126 105.88 33.9846 105.496C33.8673 105.101 33.8086 104.632 33.8086 104.088V99.272H35.1206V104.088C35.1206 104.685 35.2486 105.149 35.5046 105.48C35.7713 105.811 36.118 105.976 36.5446 105.976C37.1206 105.976 37.606 105.827 38.0006 105.528C38.406 105.229 38.7473 104.883 39.0246 104.488V99.272ZM44.1065 107H42.7625V99.272H43.8825L44.1065 100.424C44.2025 100.285 44.3198 100.141 44.4585 99.992C44.5972 99.832 44.7625 99.688 44.9545 99.56C45.1465 99.432 45.3652 99.3253 45.6105 99.24C45.8665 99.1547 46.1545 99.112 46.4745 99.112C46.9865 99.112 47.4078 99.2453 47.7385 99.512C48.0692 99.7787 48.3092 100.141 48.4585 100.6C48.7038 100.195 49.0398 99.848 49.4665 99.56C49.9038 99.2613 50.3998 99.112 50.9545 99.112C51.7225 99.112 52.2878 99.3733 52.6505 99.896C53.0132 100.419 53.1945 101.096 53.1945 101.928V107H51.8825V101.928C51.8825 101.437 51.7865 101.043 51.5945 100.744C51.4025 100.445 51.0932 100.296 50.6665 100.296C50.4318 100.296 50.2132 100.339 50.0105 100.424C49.8078 100.499 49.6212 100.605 49.4505 100.744C49.2798 100.883 49.1252 101.037 48.9865 101.208C48.8585 101.379 48.7465 101.555 48.6505 101.736V107H47.3385V101.928C47.3385 101.437 47.2425 101.043 47.0505 100.744C46.8585 100.445 46.5545 100.296 46.1385 100.296C45.6692 100.296 45.2585 100.424 44.9065 100.68C44.5652 100.925 44.2985 101.229 44.1065 101.592V107ZM56.3594 103.128C56.3594 103.544 56.402 103.933 56.4874 104.296C56.5834 104.659 56.722 104.973 56.9034 105.24C57.0954 105.496 57.3354 105.699 57.6234 105.848C57.922 105.997 58.274 106.072 58.6794 106.072C59.0847 106.072 59.4314 105.997 59.7194 105.848C60.018 105.699 60.258 105.496 60.4394 105.24C60.6314 104.973 60.77 104.659 60.8554 104.296C60.9514 103.933 60.9994 103.544 60.9994 103.128C60.9994 102.712 60.9514 102.328 60.8554 101.976C60.77 101.613 60.6314 101.304 60.4394 101.048C60.258 100.781 60.018 100.573 59.7194 100.424C59.4314 100.275 59.0847 100.2 58.6794 100.2C58.274 100.2 57.922 100.275 57.6234 100.424C57.3354 100.573 57.0954 100.781 56.9034 101.048C56.722 101.304 56.5834 101.613 56.4874 101.976C56.402 102.328 56.3594 102.712 56.3594 103.128ZM55.0314 103.128C55.0314 102.563 55.1007 102.035 55.2394 101.544C55.3887 101.053 55.6127 100.632 55.9114 100.28C56.21 99.9173 56.5887 99.6347 57.0474 99.432C57.506 99.2187 58.05 99.112 58.6794 99.112C59.3087 99.112 59.8527 99.2187 60.3114 99.432C60.77 99.6347 61.1487 99.9173 61.4474 100.28C61.746 100.632 61.9647 101.053 62.1034 101.544C62.2527 102.035 62.3274 102.563 62.3274 103.128C62.3274 103.693 62.2527 104.221 62.1034 104.712C61.9647 105.203 61.746 105.629 61.4474 105.992C61.1487 106.355 60.77 106.643 60.3114 106.856C59.8527 107.059 59.3087 107.16 58.6794 107.16C58.05 107.16 57.506 107.059 57.0474 106.856C56.5887 106.643 56.21 106.355 55.9114 105.992C55.6127 105.629 55.3887 105.203 55.2394 104.712C55.1007 104.221 55.0314 103.693 55.0314 103.128ZM69.384 99.272H70.728V107H69.64L69.384 105.688C69.288 105.848 69.16 106.019 69 106.2C68.84 106.371 68.648 106.531 68.424 106.68C68.2 106.819 67.9387 106.931 67.64 107.016C67.352 107.112 67.0267 107.16 66.664 107.16C66.2907 107.16 65.9493 107.107 65.64 107C65.3413 106.883 65.08 106.701 64.856 106.456C64.6427 106.2 64.472 105.88 64.344 105.496C64.2267 105.101 64.168 104.632 64.168 104.088V99.272H65.48V104.088C65.48 104.685 65.608 105.149 65.864 105.48C66.1307 105.811 66.4773 105.976 66.904 105.976C67.48 105.976 67.9653 105.827 68.36 105.528C68.7653 105.229 69.1067 104.883 69.384 104.488V99.272ZM24.6486 115.272V116.36H22.4246V123H21.1126V116.36H19.9286V115.272H21.1126V115.016C21.1126 114.6 21.1873 114.211 21.3366 113.848C21.486 113.485 21.6886 113.171 21.9446 112.904C22.2113 112.637 22.5206 112.429 22.8726 112.28C23.2353 112.131 23.6193 112.056 24.0246 112.056C24.5686 112.056 25.0166 112.147 25.3686 112.328C25.7313 112.499 26.0353 112.701 26.2806 112.936L26.4406 112.216H27.6246V123H26.2806V113.896C26.0673 113.693 25.7953 113.517 25.4646 113.368C25.1446 113.219 24.7926 113.144 24.4086 113.144C23.8006 113.144 23.3153 113.315 22.9526 113.656C22.6006 113.987 22.4246 114.445 22.4246 115.032V115.272H24.6486ZM30.875 119.128C30.875 119.544 30.9177 119.933 31.003 120.296C31.099 120.659 31.2377 120.973 31.419 121.24C31.611 121.496 31.851 121.699 32.139 121.848C32.4377 121.997 32.7897 122.072 33.195 122.072C33.6003 122.072 33.947 121.997 34.235 121.848C34.5337 121.699 34.7737 121.496 34.955 121.24C35.147 120.973 35.2857 120.659 35.371 120.296C35.467 119.933 35.515 119.544 35.515 119.128C35.515 118.712 35.467 118.328 35.371 117.976C35.2857 117.613 35.147 117.304 34.955 117.048C34.7737 116.781 34.5337 116.573 34.235 116.424C33.947 116.275 33.6003 116.2 33.195 116.2C32.7897 116.2 32.4377 116.275 32.139 116.424C31.851 116.573 31.611 116.781 31.419 117.048C31.2377 117.304 31.099 117.613 31.003 117.976C30.9177 118.328 30.875 118.712 30.875 119.128ZM29.547 119.128C29.547 118.563 29.6163 118.035 29.755 117.544C29.9043 117.053 30.1283 116.632 30.427 116.28C30.7257 115.917 31.1043 115.635 31.563 115.432C32.0217 115.219 32.5657 115.112 33.195 115.112C33.8243 115.112 34.3683 115.219 34.827 115.432C35.2857 115.635 35.6643 115.917 35.963 116.28C36.2617 116.632 36.4803 117.053 36.619 117.544C36.7683 118.035 36.843 118.563 36.843 119.128C36.843 119.693 36.7683 120.221 36.619 120.712C36.4803 121.203 36.2617 121.629 35.963 121.992C35.6643 122.355 35.2857 122.643 34.827 122.856C34.3683 123.059 33.8243 123.16 33.195 123.16C32.5657 123.16 32.0217 123.059 31.563 122.856C31.1043 122.643 30.7257 122.355 30.427 121.992C30.1283 121.629 29.9043 121.203 29.755 120.712C29.6163 120.221 29.547 119.693 29.547 119.128ZM44.9396 119.496C45.0463 119.848 45.137 120.2 45.2116 120.552C45.2863 120.893 45.3663 121.293 45.4516 121.752H45.4836C45.5263 121.272 45.5743 120.803 45.6276 120.344C45.681 119.875 45.745 119.485 45.8196 119.176L46.7156 115.272H48.0436L46.2036 123H44.8756L43.6276 119.08C43.4783 118.632 43.3556 118.205 43.2596 117.8C43.1743 117.384 43.089 116.936 43.0036 116.456H42.9716C42.8863 116.936 42.7956 117.384 42.6996 117.8C42.6143 118.205 42.497 118.632 42.3476 119.08L41.0996 123H39.7716L37.9316 115.272H39.2596L40.1556 119.176C40.2303 119.485 40.2943 119.875 40.3476 120.344C40.401 120.803 40.449 121.272 40.4916 121.752H40.5236C40.609 121.293 40.689 120.893 40.7636 120.552C40.8383 120.2 40.929 119.848 41.0356 119.496L42.3476 115.272H43.6276L44.9396 119.496ZM50.4531 119.736C50.5385 120.493 50.7891 121.075 51.2051 121.48C51.6211 121.875 52.2185 122.072 52.9971 122.072C53.3278 122.072 53.6745 122.04 54.0371 121.976C54.3998 121.912 54.7358 121.805 55.0451 121.656L55.3491 122.648C54.6771 122.989 53.8505 123.16 52.8691 123.16C51.6105 123.16 50.6718 122.797 50.0531 122.072C49.4345 121.347 49.1251 120.365 49.1251 119.128C49.1251 118.563 49.1891 118.035 49.3171 117.544C49.4451 117.053 49.6478 116.632 49.9251 116.28C50.2131 115.917 50.5758 115.635 51.0131 115.432C51.4611 115.219 52.0051 115.112 52.6451 115.112C53.7011 115.112 54.4798 115.411 54.9811 116.008C55.4931 116.595 55.7491 117.384 55.7491 118.376C55.7491 118.653 55.7331 118.899 55.7011 119.112C55.6798 119.325 55.6425 119.533 55.5891 119.736H50.4531ZM52.6451 116.136C52.2611 116.136 51.9358 116.205 51.6691 116.344C51.4025 116.472 51.1785 116.653 50.9971 116.888C50.8265 117.112 50.6931 117.384 50.5971 117.704C50.5011 118.024 50.4425 118.371 50.4211 118.744H54.5011V118.376C54.5011 117.672 54.3571 117.123 54.0691 116.728C53.7918 116.333 53.3171 116.136 52.6451 116.136ZM59.0284 116.584C59.1244 116.413 59.2364 116.243 59.3644 116.072C59.503 115.901 59.6577 115.747 59.8284 115.608C60.0097 115.469 60.207 115.357 60.4204 115.272C60.6444 115.176 60.895 115.123 61.1724 115.112C61.3537 115.101 61.5084 115.112 61.6364 115.144C61.7644 115.165 61.871 115.192 61.9564 115.224C62.063 115.267 62.1484 115.315 62.2124 115.368L61.8124 116.712C61.599 116.499 61.3057 116.392 60.9324 116.392C60.0577 116.392 59.423 116.824 59.0284 117.688V123H57.6844V115.272H58.7724L59.0284 116.584ZM65.5895 122.104C66.2188 122.104 66.6668 121.992 66.9335 121.768C67.2002 121.533 67.3335 121.261 67.3335 120.952C67.3335 120.749 67.2855 120.579 67.1895 120.44C67.0935 120.291 66.9655 120.163 66.8055 120.056C66.6455 119.939 66.4588 119.843 66.2455 119.768C66.0322 119.683 65.8028 119.603 65.5575 119.528C65.2055 119.421 64.8855 119.304 64.5975 119.176C64.3095 119.048 64.0588 118.893 63.8455 118.712C63.6428 118.531 63.4828 118.317 63.3655 118.072C63.2588 117.816 63.2055 117.517 63.2055 117.176C63.2055 116.525 63.4508 116.019 63.9415 115.656C64.4428 115.293 65.1362 115.112 66.0215 115.112C66.4588 115.112 66.8802 115.155 67.2855 115.24C67.7015 115.315 68.0695 115.437 68.3895 115.608L68.0855 116.616C67.7975 116.477 67.4935 116.371 67.1735 116.296C66.8535 116.211 66.5068 116.168 66.1335 116.168C65.5575 116.168 65.1415 116.264 64.8855 116.456C64.6295 116.648 64.5015 116.888 64.5015 117.176C64.5015 117.517 64.6348 117.773 64.9015 117.944C65.1682 118.115 65.5308 118.275 65.9895 118.424C66.4268 118.563 66.8108 118.712 67.1415 118.872C67.4722 119.021 67.7442 119.197 67.9575 119.4C68.1815 119.592 68.3468 119.816 68.4535 120.072C68.5708 120.328 68.6295 120.627 68.6295 120.968C68.6295 121.629 68.3895 122.163 67.9095 122.568C67.4402 122.963 66.6882 123.16 65.6535 123.16C65.1415 123.16 64.6722 123.117 64.2455 123.032C63.8295 122.957 63.4722 122.835 63.1735 122.664L63.4775 121.656C63.7655 121.795 64.0908 121.907 64.4535 121.992C64.8162 122.067 65.1948 122.104 65.5895 122.104Z" fill="black"/>
<circle cx="44" cy="46" r="43" stroke="black" stroke-width="2"/>
<path fill-rule="evenodd" clip-rule="evenodd" d="M38.5025 40.6321C40.1444 40.6952 41.6657 41.4659 42.9803 42.7767C42.5161 43.2166 42.0716 43.7176 41.6504 44.2735C40.5892 43.1872 39.4693 42.6707 38.4257 42.6306C36.7366 42.5658 34.7528 43.7296 33.0136 46.5612C32.3708 47.6078 31.7991 48.8308 31.327 50.1943C30.7202 49.8286 30.1303 49.4856 29.5669 49.1743C31.4746 43.9395 34.8225 40.4908 38.5025 40.6321Z" fill="black"/>
<path fill-rule="evenodd" clip-rule="evenodd" d="M56.5202 50.8846C55.1421 44.9564 51.9133 40.7825 47.9978 40.6321C43.2014 40.4479 38.9691 46.3627 37.7546 54.3816C38.3921 54.8169 39.0118 55.2432 39.6023 55.6502C40.0243 52.0208 41.0946 48.8641 42.509 46.5612C44.2481 43.7296 46.232 42.5658 47.9211 42.6306C49.6102 42.6955 51.4989 44.0081 53.0157 46.9648C53.7332 48.3637 54.3126 50.0417 54.6997 51.9194C55.3363 51.5374 55.9473 51.1884 56.5202 50.8846Z" fill="black"/>
<path fill-rule="evenodd" clip-rule="evenodd" d="M20.3364 59.332C20.3619 59.3498 20.3875 59.3678 20.4133 59.3858C21.0341 59.8201 21.7192 60.2992 22.4625 60.8069C22.3566 59.9292 22.3083 59.0561 22.317 58.2005C22.3571 54.2754 23.5749 51.1314 25.4261 49.4963C25.7547 49.5747 26.245 49.7509 26.905 50.056C28.2998 50.7011 30.092 51.7512 32.0312 52.985C33.9557 54.2094 35.9605 55.5728 37.7698 56.8169C38.1596 57.0849 38.5419 57.3486 38.913 57.6045L38.9142 57.6053L38.9144 57.6054C40.0985 58.4219 41.169 59.16 42.005 59.7125C42.1501 59.9091 42.2919 60.1053 42.4302 60.301C42.9123 59.9679 43.4633 59.5791 44.0663 59.1508C43.8504 58.845 43.6272 58.5392 43.397 58.2337C42.5496 57.6826 41.3937 56.8855 40.0667 55.9706C34.5848 52.1908 26.1847 46.3988 24.5641 47.6198C21.5908 49.8598 20.1232 54.404 20.3364 59.332ZM25.147 49.4521C25.146 49.4509 25.1605 49.4502 25.1933 49.4535C25.1644 49.455 25.148 49.4533 25.147 49.4521Z" fill="black"/>
<path fill-rule="evenodd" clip-rule="evenodd" d="M25.7964 77.763C31.5442 80.8806 37.4008 81.9783 41.1461 80.9681C40.9184 80.8315 40.6958 80.684 40.4788 80.5257C39.9614 80.1482 39.5026 79.7369 39.1007 79.2949C38.6297 79.3331 38.1112 79.3437 37.5422 79.3211C34.5029 79.2005 30.6425 78.1163 26.7499 76.005C23.2063 74.083 20.6353 70.4041 19.215 66.5921C18.5118 64.7046 18.1214 62.8618 18.0242 61.3046C17.9979 60.8826 17.994 60.4973 18.0077 60.1488L18.0898 60.2052C18.4353 60.4431 18.8204 60.7125 19.2401 61.006L19.2402 61.0061C20.2924 61.742 21.5618 62.6299 22.9688 63.5544C26.681 65.9938 31.591 68.8546 37.1479 70.5846C37.2718 69.9499 37.4384 69.3024 37.6464 68.645C30.3922 66.3658 24.206 62.0387 20.4133 59.3858L20.4133 59.3858C18.5129 58.0566 17.2135 57.1476 16.6817 57.1272C14.4916 61.165 17.5914 73.3127 25.7964 77.763ZM16.2917 59.0756C16.2799 59.0717 16.2736 59.0691 16.2735 59.0688C16.2733 59.0685 16.2792 59.0705 16.2917 59.0756Z" fill="black"/>
<path d="M42.5531 61.4291C39.8164 65.2178 38.2269 68.9408 37.9333 72.1306C37.6402 75.3152 38.63 77.9391 41.0681 79.7178C43.5069 81.4969 46.8147 81.7674 50.2919 80.5935C53.7662 79.4205 57.3183 76.8251 60.0736 73.0482C62.7912 69.323 64.0335 64.5962 63.924 60.3162C63.8144 56.0294 62.3644 52.42 59.9764 50.6423C59.9376 50.6389 59.8072 50.6313 59.5268 50.6952C59.0935 50.7939 58.5062 51.0174 57.7781 51.3677C56.3311 52.0641 54.5101 53.1718 52.5814 54.4409C50.6601 55.7051 48.6643 57.108 46.8729 58.3808C46.4823 58.6583 46.1007 58.9302 45.7313 59.1934C44.4906 60.0773 43.3885 60.8624 42.5531 61.4291Z" stroke="black" stroke-width="2"/>
<path fill-rule="evenodd" clip-rule="evenodd" d="M39.2622 76.4676C39.3692 77.2214 39.6167 78.0136 39.9836 78.8349C41.8575 83.0288 50.2851 83.3418 58.8073 79.5341C67.3295 75.7264 71.3521 63.8522 69.4782 59.6583C68.9464 59.6379 67.5811 60.4445 65.5844 61.624L65.5844 61.624C65.2368 61.8293 64.87 62.046 64.4852 62.2715C64.3013 63.1877 64.0597 64.1012 63.7593 65.0004C64.8216 64.3975 65.7913 63.8248 66.6296 63.3295L66.6297 63.3295C67.0707 63.069 67.4754 62.8299 67.8382 62.6192L67.9243 62.5693C67.9112 62.9178 67.8778 63.3017 67.8192 63.7204C67.6028 65.2656 67.0722 67.073 66.2262 68.901C64.5177 72.5928 61.672 76.0636 57.9914 77.7081C53.9484 79.5145 50.0161 80.2994 46.9766 80.1865C44.2471 80.0851 42.7337 79.3119 42.0711 78.4521C41.5142 78.2008 40.9817 77.8926 40.4787 77.5256C40.0294 77.1978 39.6243 76.8445 39.2622 76.4676ZM69.7175 61.6309C69.7297 61.6279 69.7361 61.6259 69.7363 61.6256C69.7365 61.6253 69.7304 61.6268 69.7175 61.6309Z" fill="black"/>
<path d="M30.2261 12.1836C30.3282 12 30.4253 11.8247 30.5875 11.5333C31.2699 12.2717 31.912 12.9508 32.5302 13.6505C32.6389 13.7732 32.7195 13.9987 32.6883 14.1519C32.5829 14.6696 32.8743 14.9166 33.248 15.157C34.5034 15.9645 35.7497 16.7861 37.0034 17.5953C37.1072 17.6619 37.2422 17.713 37.364 17.7163C38.5905 17.7517 39.8171 17.7764 41.14 17.8052C40.9506 17.2421 40.8609 16.6017 40.5448 16.1053C39.5874 14.5997 40.1744 12.6808 41.8578 12.1062C41.9063 12.0898 41.9508 12.0601 41.9722 12.0494C41.9574 11.7481 41.8701 11.4403 41.9434 11.1785C42.1599 10.4088 42.4241 10.329 43.1255 10.7628C43.5346 10.5463 43.9289 10.4055 44.4278 10.7035C44.6533 10.8385 45.0806 10.6764 45.4041 10.5981C45.9581 10.464 46.0626 10.4944 46.1293 11.0525C46.168 11.3744 46.1087 11.7086 46.0906 12.0931C46.8307 12.4256 47.4209 12.9895 47.7255 13.8201C48.0251 14.6384 47.9905 15.4113 47.4201 16.1168C47.0562 16.5671 46.9846 17.0898 47.0142 17.6652C48.3165 17.6652 49.5669 17.7097 50.8124 17.6504C51.7122 17.6076 52.5494 17.2709 53.2293 16.6568C54.027 15.9365 54.8016 15.1907 55.5688 14.4383C55.7038 14.3066 55.8158 14.0942 55.8331 13.9082C55.9401 12.7812 56.5904 11.9301 57.2588 10.9505C57.4111 11.2295 57.5223 11.4337 57.6951 11.749C57.8812 11.516 58.0277 11.2946 58.2121 11.111C58.5035 10.8204 58.8443 10.7595 59.2123 10.9859C59.5531 11.1958 59.707 11.4954 59.5424 11.9358C59.3143 12.545 59.0674 13.169 58.7011 13.6991C58.3035 14.2745 57.8071 14.8055 57.2662 15.2492C56.8415 15.5974 56.5254 15.9843 56.3146 16.4675C55.7203 17.8332 54.7111 18.7856 53.3824 19.4063C52.5963 19.7742 51.848 20.1735 51.2076 20.7826C50.7951 21.1745 50.2864 21.4651 49.7851 21.8265C49.9506 22.7418 50.2576 23.6869 49.7793 24.65C49.4517 24.5315 49.1661 24.3915 48.8656 24.3355C48.5264 24.2524 48.4194 24.4458 48.4227 24.5249C48.6162 24.5529 48.9076 24.7389 49.0187 24.8187C49.3982 25.0912 49.5834 25.2657 49.9135 25.5868C50.8692 26.5153 50.8964 27.7007 50.4329 28.9602C50.5926 29.0088 50.7318 29.0392 50.8626 29.0919C52.523 29.7604 53.8138 30.7515 54.1348 32.6662C54.2542 33.3766 54.0081 33.9776 53.6788 34.5283C53.3347 35.1045 52.8778 35.577 52.1666 35.8182C51.3804 36.0849 50.6601 36.5443 49.9061 36.9098C49.6484 37.0349 49.3809 37.1403 49.1101 37.2341C48.8993 37.3065 48.5939 37.2769 48.4787 37.416C48.2523 37.6893 47.965 38.0647 47.9947 38.3693C48.0729 39.1776 47.9683 40.084 48.6804 40.7047C48.9487 40.9376 49.2714 41.1196 49.5941 41.2743C49.8468 41.3953 50.0856 41.504 50.0749 41.816C50.0642 42.123 49.837 42.2992 49.5653 42.3338C48.3857 42.4844 47.2011 42.5684 46.168 41.8102C45.763 41.513 45.4131 41.1286 45.4535 40.5688C45.4963 39.9778 45.2345 39.5135 44.9382 39.0394C44.7192 38.6879 44.5076 38.3125 44.3957 37.9182C44.1388 37.0102 44.6328 36.3648 45.5802 36.3212C45.8116 36.3105 46.0462 36.3689 46.2857 36.3961C46.5829 35.8906 46.6726 35.3103 46.5985 34.2435C45.8173 34.2311 45.0633 34.0747 44.3603 34.7283C43.6449 35.3926 43.1922 35.3021 42.4225 34.6806C42.1722 34.4789 41.8668 34.3447 41.5507 34.1587C41.191 34.7365 40.8313 35.1942 40.6148 35.712C40.5036 35.9787 40.6469 36.3516 40.6749 36.6776C40.8658 36.7023 40.9671 36.7204 41.07 36.7278C42.178 36.8044 42.4867 37.1649 42.439 38.2656C42.4266 38.5578 42.3262 38.7545 42.0998 38.9225C41.4231 39.4263 41.0099 40.107 40.7885 40.9146C40.6642 41.3665 40.3489 41.653 39.8945 41.6867C39.1404 41.7427 38.3806 41.7633 37.6258 41.7419C37.4455 41.7369 37.2068 41.5369 37.1195 41.364C37.0726 41.271 37.257 41.0027 37.3977 40.8874C37.8538 40.5137 38.1864 40.065 38.4473 39.5349C39.1791 38.0458 38.8877 36.8505 37.5138 35.9302C36.9919 35.5803 36.4568 35.2477 35.9102 34.939C35.0648 34.4616 34.4063 33.8055 33.9346 32.9626C33.2719 31.7796 33.6563 30.1604 34.7907 29.4171C35.3142 29.0738 35.8666 28.7742 36.4675 28.4194C36.4379 27.6653 36.5507 26.9072 36.9787 26.2091C37.3541 25.5967 37.5764 24.9793 38.2423 24.6475C38.3658 24.5792 38.4761 24.5364 38.6235 24.4607C38.6992 24.422 39.0252 24.3191 38.9997 24.2771C38.9264 24.1553 38.6844 23.9906 38.4465 24.0952C38.1221 24.2252 37.7114 24.3981 37.3804 24.72C37.4447 23.835 37.592 23.1847 37.6529 22.3426C37.3113 22.0734 36.9219 21.7697 36.535 21.4634C35.4674 20.6188 34.3215 19.8524 33.3592 18.9008C32.6471 18.1962 32.1499 17.2652 31.6058 16.4041C31.3193 15.9513 30.9867 15.5809 30.5677 15.2483C29.7083 14.5667 28.7987 13.9189 28.3089 12.8833C28.1467 12.5409 27.8207 12.1737 28.1253 11.7984C28.4505 11.3975 28.895 11.5991 29.2836 11.7498C29.6013 11.8716 29.9026 12.033 30.2261 12.1836Z" fill="black"/>
</svg>
