<svg width="496" height="88" viewBox="0 0 496 88" fill="none" xmlns="http://www.w3.org/2000/svg">
<path d="M136.938 34.504C138.991 34.504 140.764 34.8587 142.258 35.568C143.788 36.24 145.058 37.2107 146.066 38.48C147.074 39.712 147.82 41.1867 148.306 42.904C148.828 44.584 149.09 46.432 149.09 48.448C149.09 50.464 148.828 52.3307 148.306 54.048C147.82 55.728 147.074 57.2027 146.066 58.472C145.058 59.704 143.788 60.6747 142.258 61.384C140.764 62.056 138.991 62.392 136.938 62.392C134.884 62.392 133.092 62.056 131.562 61.384C130.068 60.6747 128.818 59.704 127.81 58.472C126.802 57.2027 126.036 55.728 125.514 54.048C125.028 52.3307 124.786 50.464 124.786 48.448C124.786 46.432 125.028 44.584 125.514 42.904C126.036 41.1867 126.802 39.712 127.81 38.48C128.818 37.2107 130.068 36.24 131.562 35.568C133.092 34.8587 134.884 34.504 136.938 34.504ZM136.938 60.264C138.618 60.264 140.055 59.984 141.25 59.424C142.482 58.8267 143.471 58.0053 144.218 56.96C145.002 55.9147 145.58 54.664 145.954 53.208C146.327 51.752 146.514 50.1653 146.514 48.448C146.514 46.7307 146.327 45.144 145.954 43.688C145.58 42.232 145.002 40.9813 144.218 39.936C143.471 38.8907 142.482 38.088 141.25 37.528C140.055 36.9307 138.618 36.632 136.938 36.632C135.258 36.632 133.802 36.9307 132.57 37.528C131.375 38.088 130.386 38.8907 129.602 39.936C128.855 40.9813 128.295 42.232 127.922 43.688C127.548 45.144 127.362 46.7307 127.362 48.448C127.362 50.1653 127.548 51.752 127.922 53.208C128.295 54.664 128.855 55.9147 129.602 56.96C130.386 58.0053 131.375 58.8267 132.57 59.424C133.802 59.984 135.258 60.264 136.938 60.264ZM163.049 60.264C165.438 60.264 167.193 59.816 168.313 58.92C169.47 58.024 170.049 56.792 170.049 55.224C170.049 54.328 169.862 53.5627 169.489 52.928C169.116 52.2933 168.593 51.7333 167.921 51.248C167.249 50.7627 166.446 50.352 165.513 50.016C164.617 49.68 163.646 49.344 162.601 49.008C161.481 48.672 160.436 48.2987 159.465 47.888C158.532 47.44 157.71 46.9173 157.001 46.32C156.292 45.6853 155.732 44.9573 155.321 44.136C154.91 43.3147 154.705 42.3253 154.705 41.168C154.705 40.048 154.929 39.0773 155.377 38.256C155.825 37.3973 156.441 36.688 157.225 36.128C158.046 35.568 158.998 35.1573 160.081 34.896C161.164 34.6347 162.321 34.504 163.553 34.504C165.158 34.504 166.633 34.672 167.977 35.008C169.321 35.344 170.516 35.736 171.561 36.184L170.889 38.256C169.918 37.808 168.798 37.4347 167.529 37.136C166.26 36.8373 164.934 36.688 163.553 36.688C161.537 36.688 159.969 37.0427 158.849 37.752C157.729 38.4613 157.169 39.5253 157.169 40.944C157.169 42.5867 157.766 43.856 158.961 44.752C160.193 45.6107 161.705 46.2827 163.497 46.768C166.446 47.6267 168.686 48.6907 170.217 49.96C171.748 51.2293 172.513 52.984 172.513 55.224C172.513 57.464 171.729 59.2373 170.161 60.544C168.593 61.8133 166.222 62.448 163.049 62.448C161.481 62.448 159.95 62.28 158.457 61.944C156.964 61.5707 155.732 61.16 154.761 60.712L155.433 58.696C156.329 59.1067 157.468 59.48 158.849 59.816C160.23 60.1147 161.63 60.264 163.049 60.264ZM198.826 34.952H201.402V62H199.498L198.826 56.68C198.49 57.352 198.005 58.024 197.37 58.696C196.735 59.368 195.989 59.984 195.13 60.544C194.309 61.104 193.357 61.5707 192.274 61.944C191.229 62.28 190.109 62.448 188.914 62.448C186.002 62.448 183.762 61.5707 182.194 59.816C180.663 58.0613 179.898 55.56 179.898 52.312V34.952H182.474V52.312C182.474 54.8133 182.997 56.7547 184.042 58.136C185.125 59.48 186.823 60.152 189.138 60.152C190.183 60.152 191.21 59.9653 192.218 59.592C193.226 59.2187 194.141 58.752 194.962 58.192C195.821 57.5947 196.567 56.9227 197.202 56.176C197.874 55.4293 198.415 54.664 198.826 53.88V34.952ZM213.156 62H210.58V34.952H212.484L213.156 40.272C213.567 39.6 214.09 38.928 214.724 38.256C215.359 37.5467 216.068 36.912 216.852 36.352C217.674 35.792 218.551 35.344 219.484 35.008C220.418 34.672 221.407 34.504 222.452 34.504C224.468 34.504 225.999 35.064 227.044 36.184C228.127 37.2667 228.855 38.76 229.228 40.664C230.199 38.9467 231.524 37.4907 233.204 36.296C234.922 35.1013 236.788 34.504 238.804 34.504C241.306 34.504 243.098 35.3627 244.18 37.08C245.3 38.7973 245.86 41.0933 245.86 43.968V62H243.284V43.968C243.284 41.7653 242.967 40.0293 242.332 38.76C241.698 37.4533 240.41 36.8 238.468 36.8C236.751 36.8 235.09 37.3787 233.484 38.536C231.879 39.656 230.535 41.1493 229.452 43.016C229.452 43.2027 229.452 43.3707 229.452 43.52C229.49 43.632 229.508 43.7813 229.508 43.968V62H226.932V43.968C226.932 41.7653 226.615 40.0293 225.98 38.76C225.346 37.4533 224.058 36.8 222.116 36.8C221.183 36.8 220.287 36.968 219.428 37.304C218.57 37.64 217.748 38.1067 216.964 38.704C216.218 39.264 215.508 39.936 214.836 40.72C214.202 41.4667 213.642 42.2507 213.156 43.072V62ZM265.18 34.504C267.233 34.504 269.007 34.8587 270.5 35.568C272.031 36.24 273.3 37.2107 274.308 38.48C275.316 39.712 276.063 41.1867 276.548 42.904C277.071 44.584 277.332 46.432 277.332 48.448C277.332 50.464 277.071 52.3307 276.548 54.048C276.063 55.728 275.316 57.2027 274.308 58.472C273.3 59.704 272.031 60.6747 270.5 61.384C269.007 62.056 267.233 62.392 265.18 62.392C263.127 62.392 261.335 62.056 259.804 61.384C258.311 60.6747 257.06 59.704 256.052 58.472C255.044 57.2027 254.279 55.728 253.756 54.048C253.271 52.3307 253.028 50.464 253.028 48.448C253.028 46.432 253.271 44.584 253.756 42.904C254.279 41.1867 255.044 39.712 256.052 38.48C257.06 37.2107 258.311 36.24 259.804 35.568C261.335 34.8587 263.127 34.504 265.18 34.504ZM265.18 60.264C266.86 60.264 268.297 59.984 269.492 59.424C270.724 58.8267 271.713 58.0053 272.46 56.96C273.244 55.9147 273.823 54.664 274.196 53.208C274.569 51.752 274.756 50.1653 274.756 48.448C274.756 46.7307 274.569 45.144 274.196 43.688C273.823 42.232 273.244 40.9813 272.46 39.936C271.713 38.8907 270.724 38.088 269.492 37.528C268.297 36.9307 266.86 36.632 265.18 36.632C263.5 36.632 262.044 36.9307 260.812 37.528C259.617 38.088 258.628 38.8907 257.844 39.936C257.097 40.9813 256.537 42.232 256.164 43.688C255.791 45.144 255.604 46.7307 255.604 48.448C255.604 50.1653 255.791 51.752 256.164 53.208C256.537 54.664 257.097 55.9147 257.844 56.96C258.628 58.0053 259.617 58.8267 260.812 59.424C262.044 59.984 263.5 60.264 265.18 60.264ZM303.443 34.952H306.019V62H304.115L303.443 56.68C303.107 57.352 302.622 58.024 301.987 58.696C301.352 59.368 300.606 59.984 299.747 60.544C298.926 61.104 297.974 61.5707 296.891 61.944C295.846 62.28 294.726 62.448 293.531 62.448C290.619 62.448 288.379 61.5707 286.811 59.816C285.28 58.0613 284.515 55.56 284.515 52.312V34.952H287.091V52.312C287.091 54.8133 287.614 56.7547 288.659 58.136C289.742 59.48 291.44 60.152 293.755 60.152C294.8 60.152 295.827 59.9653 296.835 59.592C297.843 59.2187 298.758 58.752 299.579 58.192C300.438 57.5947 301.184 56.9227 301.819 56.176C302.491 55.4293 303.032 54.664 303.443 53.88V34.952ZM334.533 34.952H342.877V37.08H334.533V62H332.013V37.08H327.309V34.952H332.013V34.392C332.013 32.9733 332.218 31.6293 332.629 30.36C333.039 29.0533 333.674 27.9147 334.533 26.944C335.391 25.9733 336.493 25.208 337.837 24.648C339.218 24.088 340.842 23.808 342.709 23.808C344.351 23.808 345.975 23.9573 347.581 24.256C349.223 24.5173 350.661 24.8533 351.893 25.264V62H349.317V26.72C348.607 26.5333 347.674 26.3653 346.517 26.216C345.397 26.0667 344.277 25.992 343.157 25.992C341.477 25.992 340.077 26.216 338.957 26.664C337.837 27.112 336.941 27.7093 336.269 28.456C335.634 29.2027 335.186 30.0987 334.925 31.144C334.663 32.1893 334.533 33.2907 334.533 34.448V34.952ZM371.492 34.504C373.546 34.504 375.319 34.8587 376.812 35.568C378.343 36.24 379.612 37.2107 380.62 38.48C381.628 39.712 382.375 41.1867 382.86 42.904C383.383 44.584 383.644 46.432 383.644 48.448C383.644 50.464 383.383 52.3307 382.86 54.048C382.375 55.728 381.628 57.2027 380.62 58.472C379.612 59.704 378.343 60.6747 376.812 61.384C375.319 62.056 373.546 62.392 371.492 62.392C369.439 62.392 367.647 62.056 366.116 61.384C364.623 60.6747 363.372 59.704 362.364 58.472C361.356 57.2027 360.591 55.728 360.068 54.048C359.583 52.3307 359.34 50.464 359.34 48.448C359.34 46.432 359.583 44.584 360.068 42.904C360.591 41.1867 361.356 39.712 362.364 38.48C363.372 37.2107 364.623 36.24 366.116 35.568C367.647 34.8587 369.439 34.504 371.492 34.504ZM371.492 60.264C373.172 60.264 374.61 59.984 375.804 59.424C377.036 58.8267 378.026 58.0053 378.772 56.96C379.556 55.9147 380.135 54.664 380.508 53.208C380.882 51.752 381.068 50.1653 381.068 48.448C381.068 46.7307 380.882 45.144 380.508 43.688C380.135 42.232 379.556 40.9813 378.772 39.936C378.026 38.8907 377.036 38.088 375.804 37.528C374.61 36.9307 373.172 36.632 371.492 36.632C369.812 36.632 368.356 36.9307 367.124 37.528C365.93 38.088 364.94 38.8907 364.156 39.936C363.41 40.9813 362.85 42.232 362.476 43.688C362.103 45.144 361.916 46.7307 361.916 48.448C361.916 50.1653 362.103 51.752 362.476 53.208C362.85 54.664 363.41 55.9147 364.156 56.96C364.94 58.0053 365.93 58.8267 367.124 59.424C368.356 59.984 369.812 60.264 371.492 60.264ZM406.396 34.952L411.772 51.752C412.145 52.872 412.5 54.1227 412.836 55.504C413.172 56.848 413.452 58.1547 413.676 59.424H413.788C413.825 58.9387 413.881 58.36 413.956 57.688C414.068 57.016 414.18 56.288 414.292 55.504C414.441 54.72 414.59 53.936 414.74 53.152C414.926 52.3307 415.113 51.528 415.3 50.744L419.332 34.952H421.74L414.852 62H412.78L406.172 41.504C405.948 40.7573 405.724 39.992 405.5 39.208C405.276 38.3867 405.089 37.6213 404.94 36.912H404.828C404.678 37.6213 404.492 38.3867 404.268 39.208C404.044 39.992 403.82 40.7573 403.596 41.504L396.988 62H394.916L388.028 34.952H390.436L394.468 50.744C394.654 51.528 394.822 52.3307 394.972 53.152C395.158 53.936 395.308 54.72 395.42 55.504C395.569 56.288 395.681 57.016 395.756 57.688C395.83 58.36 395.905 58.9387 395.98 59.424H396.092C396.316 58.1547 396.596 56.848 396.932 55.504C397.268 54.1227 397.622 52.872 397.996 51.752L403.372 34.952H406.396ZM428.634 49.68C428.783 52.816 429.698 55.3733 431.378 57.352C433.058 59.2933 435.596 60.264 438.994 60.264C440.412 60.264 441.719 60.0773 442.914 59.704C444.146 59.3307 445.228 58.8827 446.162 58.36L446.834 60.32C445.9 60.88 444.743 61.3653 443.362 61.776C442.018 62.1867 440.524 62.392 438.882 62.392C436.754 62.392 434.887 62.056 433.282 61.384C431.676 60.6747 430.332 59.704 429.25 58.472C428.204 57.2027 427.42 55.728 426.898 54.048C426.375 52.3307 426.114 50.464 426.114 48.448C426.114 46.432 426.356 44.584 426.842 42.904C427.364 41.1867 428.13 39.712 429.138 38.48C430.146 37.2107 431.396 36.24 432.89 35.568C434.42 34.8587 436.194 34.504 438.21 34.504C441.495 34.504 443.996 35.4373 445.714 37.304C447.431 39.1707 448.29 41.8027 448.29 45.2C448.29 45.9093 448.215 46.6933 448.066 47.552C447.954 48.4107 447.804 49.12 447.618 49.68H428.634ZM438.21 36.576C436.53 36.576 435.092 36.856 433.898 37.416C432.703 37.976 431.732 38.7413 430.986 39.712C430.239 40.6827 429.679 41.8587 429.306 43.24C428.932 44.6213 428.727 46.1147 428.69 47.72H445.714C445.788 47.384 445.844 46.992 445.882 46.544C445.919 46.0587 445.938 45.6107 445.938 45.2C445.938 42.2507 445.303 40.0853 444.034 38.704C442.802 37.2853 440.86 36.576 438.21 36.576ZM458.156 62H455.58V34.952H457.484L458.156 40.272C458.604 39.488 459.108 38.76 459.668 38.088C460.266 37.3787 460.919 36.7627 461.628 36.24C462.338 35.7173 463.103 35.3067 463.924 35.008C464.746 34.672 465.604 34.504 466.5 34.504C467.284 34.504 467.975 34.5973 468.572 34.784C469.207 34.9333 469.73 35.12 470.14 35.344L469.468 37.808C469.095 37.584 468.647 37.3973 468.124 37.248C467.639 37.0987 467.004 37.024 466.22 37.024C464.428 37.024 462.879 37.6027 461.572 38.76C460.266 39.9173 459.127 41.3547 458.156 43.072V62ZM482.533 60.264C484.923 60.264 486.677 59.816 487.797 58.92C488.955 58.024 489.533 56.792 489.533 55.224C489.533 54.328 489.347 53.5627 488.973 52.928C488.6 52.2933 488.077 51.7333 487.405 51.248C486.733 50.7627 485.931 50.352 484.997 50.016C484.101 49.68 483.131 49.344 482.085 49.008C480.965 48.672 479.92 48.2987 478.949 47.888C478.016 47.44 477.195 46.9173 476.485 46.32C475.776 45.6853 475.216 44.9573 474.805 44.136C474.395 43.3147 474.189 42.3253 474.189 41.168C474.189 40.048 474.413 39.0773 474.861 38.256C475.309 37.3973 475.925 36.688 476.709 36.128C477.531 35.568 478.483 35.1573 479.565 34.896C480.648 34.6347 481.805 34.504 483.037 34.504C484.643 34.504 486.117 34.672 487.461 35.008C488.805 35.344 490 35.736 491.045 36.184L490.373 38.256C489.403 37.808 488.283 37.4347 487.013 37.136C485.744 36.8373 484.419 36.688 483.037 36.688C481.021 36.688 479.453 37.0427 478.333 37.752C477.213 38.4613 476.653 39.5253 476.653 40.944C476.653 42.5867 477.251 43.856 478.445 44.752C479.677 45.6107 481.189 46.2827 482.981 46.768C485.931 47.6267 488.171 48.6907 489.701 49.96C491.232 51.2293 491.997 52.984 491.997 55.224C491.997 57.464 491.213 59.2373 489.645 60.544C488.077 61.8133 485.707 62.448 482.533 62.448C480.965 62.448 479.435 62.28 477.941 61.944C476.448 61.5707 475.216 61.16 474.245 60.712L474.917 58.696C475.813 59.1067 476.952 59.48 478.333 59.816C479.715 60.1147 481.115 60.264 482.533 60.264Z" fill="black"/>
<circle cx="46" cy="44" r="43" stroke="black" stroke-width="2"/>
<path fill-rule="evenodd" clip-rule="evenodd" d="M40.5025 38.6321C42.1444 38.6952 43.6657 39.4659 44.9803 40.7767C44.5161 41.2166 44.0716 41.7176 43.6504 42.2735C42.5892 41.1872 41.4693 40.6707 40.4257 40.6306C38.7366 40.5658 36.7528 41.7296 35.0136 44.5612C34.3708 45.6078 33.7991 46.8308 33.327 48.1943C32.7202 47.8286 32.1303 47.4856 31.5669 47.1743C33.4746 41.9395 36.8225 38.4908 40.5025 38.6321Z" fill="black"/>
<path fill-rule="evenodd" clip-rule="evenodd" d="M58.5202 48.8846C57.1421 42.9564 53.9133 38.7825 49.9978 38.6321C45.2014 38.4479 40.9691 44.3627 39.7546 52.3816C40.3921 52.8169 41.0118 53.2432 41.6023 53.6502C42.0243 50.0208 43.0946 46.8641 44.509 44.5612C46.2481 41.7296 48.232 40.5658 49.9211 40.6306C51.6102 40.6955 53.4989 42.0081 55.0157 44.9648C55.7332 46.3637 56.3126 48.0417 56.6997 49.9194C57.3363 49.5374 57.9473 49.1884 58.5202 48.8846Z" fill="black"/>
<path fill-rule="evenodd" clip-rule="evenodd" d="M22.3364 57.332C22.3619 57.3498 22.3875 57.3678 22.4133 57.3858C23.0341 57.8201 23.7192 58.2992 24.4625 58.8069C24.3566 57.9292 24.3083 57.0561 24.317 56.2005C24.3571 52.2754 25.5749 49.1314 27.4261 47.4963C27.7547 47.5747 28.245 47.7509 28.905 48.056C30.2998 48.7011 32.092 49.7512 34.0312 50.985C35.9557 52.2094 37.9605 53.5728 39.7698 54.8169C40.1596 55.0849 40.5419 55.3486 40.913 55.6045L40.9142 55.6053L40.9144 55.6054C42.0985 56.4219 43.169 57.16 44.005 57.7125C44.1501 57.9091 44.2919 58.1053 44.4302 58.301C44.9123 57.9679 45.4633 57.5791 46.0663 57.1508C45.8504 56.845 45.6272 56.5392 45.397 56.2337C44.5496 55.6826 43.3937 54.8855 42.0667 53.9706C36.5848 50.1908 28.1847 44.3988 26.5641 45.6198C23.5908 47.8598 22.1232 52.404 22.3364 57.332ZM27.147 47.4521C27.146 47.4509 27.1605 47.4502 27.1933 47.4535C27.1644 47.455 27.148 47.4533 27.147 47.4521Z" fill="black"/>
<path fill-rule="evenodd" clip-rule="evenodd" d="M27.7964 75.763C33.5442 78.8806 39.4008 79.9783 43.1461 78.9681C42.9184 78.8315 42.6958 78.684 42.4788 78.5257C41.9614 78.1482 41.5026 77.7369 41.1007 77.2949C40.6297 77.3331 40.1112 77.3437 39.5422 77.3211C36.5029 77.2005 32.6425 76.1163 28.7499 74.005C25.2063 72.083 22.6353 68.4041 21.215 64.5921C20.5118 62.7046 20.1214 60.8618 20.0242 59.3046C19.9979 58.8826 19.994 58.4973 20.0077 58.1488L20.0898 58.2052C20.4353 58.4431 20.8204 58.7125 21.2401 59.006L21.2402 59.0061C22.2924 59.742 23.5618 60.6299 24.9688 61.5544C28.681 63.9938 33.591 66.8546 39.1479 68.5846C39.2718 67.9499 39.4384 67.3024 39.6464 66.645C32.3922 64.3658 26.206 60.0387 22.4133 57.3858L22.4133 57.3858C20.5129 56.0566 19.2135 55.1476 18.6817 55.1272C16.4916 59.165 19.5914 71.3127 27.7964 75.763ZM18.2917 57.0756C18.2799 57.0717 18.2736 57.0691 18.2735 57.0688C18.2733 57.0685 18.2792 57.0705 18.2917 57.0756Z" fill="black"/>
<path d="M44.5531 59.4291C41.8164 63.2178 40.2269 66.9408 39.9333 70.1306C39.6402 73.3152 40.63 75.9391 43.0681 77.7178C45.5069 79.4969 48.8147 79.7674 52.2919 78.5935C55.7662 77.4205 59.3183 74.8251 62.0736 71.0482C64.7912 67.323 66.0335 62.5962 65.924 58.3162C65.8144 54.0294 64.3644 50.42 61.9764 48.6423C61.9376 48.6389 61.8072 48.6313 61.5268 48.6952C61.0935 48.7939 60.5062 49.0174 59.7781 49.3677C58.3311 50.0641 56.5101 51.1718 54.5814 52.4409C52.6601 53.7051 50.6643 55.108 48.8729 56.3808C48.4823 56.6583 48.1007 56.9302 47.7313 57.1934C46.4906 58.0773 45.3885 58.8624 44.5531 59.4291Z" stroke="black" stroke-width="2"/>
<path fill-rule="evenodd" clip-rule="evenodd" d="M41.2622 74.4676C41.3692 75.2214 41.6167 76.0136 41.9836 76.8349C43.8575 81.0288 52.2851 81.3418 60.8073 77.5341C69.3295 73.7264 73.3521 61.8522 71.4782 57.6583C70.9464 57.6379 69.5811 58.4445 67.5844 59.624L67.5844 59.624C67.2368 59.8293 66.87 60.046 66.4852 60.2715C66.3013 61.1877 66.0597 62.1012 65.7593 63.0004C66.8216 62.3975 67.7913 61.8248 68.6296 61.3295L68.6297 61.3295C69.0707 61.069 69.4754 60.8299 69.8382 60.6192L69.9243 60.5693C69.9112 60.9178 69.8778 61.3017 69.8192 61.7204C69.6028 63.2656 69.0722 65.073 68.2262 66.901C66.5177 70.5928 63.672 74.0636 59.9914 75.7081C55.9484 77.5145 52.0161 78.2994 48.9766 78.1865C46.2471 78.0851 44.7337 77.3119 44.0711 76.4521C43.5142 76.2008 42.9817 75.8926 42.4787 75.5256C42.0294 75.1978 41.6243 74.8445 41.2622 74.4676ZM71.7175 59.6309C71.7297 59.6279 71.7361 59.6259 71.7363 59.6256C71.7365 59.6253 71.7304 59.6268 71.7175 59.6309Z" fill="black"/>
<path d="M32.2261 10.1836C32.3282 10 32.4253 9.8247 32.5875 9.53329C33.2699 10.2717 33.912 10.9508 34.5302 11.6505C34.6389 11.7732 34.7195 11.9987 34.6883 12.1519C34.5829 12.6696 34.8743 12.9166 35.248 13.157C36.5034 13.9645 37.7497 14.7861 39.0034 15.5953C39.1072 15.6619 39.2422 15.713 39.364 15.7163C40.5905 15.7517 41.8171 15.7764 43.14 15.8052C42.9506 15.2421 42.8609 14.6017 42.5448 14.1053C41.5874 12.5997 42.1744 10.6808 43.8578 10.1062C43.9063 10.0898 43.9508 10.0601 43.9722 10.0494C43.9574 9.74814 43.8701 9.44027 43.9434 9.1785C44.1599 8.40881 44.4241 8.32896 45.1255 8.76279C45.5346 8.54629 45.9289 8.40552 46.4278 8.70352C46.6533 8.83852 47.0806 8.67635 47.4041 8.59815C47.9581 8.46397 48.0626 8.49443 48.1293 9.05255C48.168 9.37442 48.1087 9.70863 48.0906 10.0931C48.8307 10.4256 49.4209 10.9895 49.7255 11.8201C50.0251 12.6384 49.9905 13.4113 49.4201 14.1168C49.0562 14.5671 48.9846 15.0898 49.0142 15.6652C50.3165 15.6652 51.5669 15.7097 52.8124 15.6504C53.7122 15.6076 54.5494 15.2709 55.2293 14.6568C56.027 13.9365 56.8016 13.1907 57.5688 12.4383C57.7038 12.3066 57.8158 12.0942 57.8331 11.9082C57.9401 10.7812 58.5904 9.93007 59.2588 8.95047C59.4111 9.22953 59.5223 9.43369 59.6951 9.74897C59.8812 9.516 60.0277 9.29457 60.2121 9.111C60.5035 8.82041 60.8443 8.75949 61.2123 8.98587C61.5531 9.19578 61.707 9.49542 61.5424 9.93583C61.3143 10.545 61.0674 11.169 60.7011 11.6991C60.3035 12.2745 59.8071 12.8055 59.2662 13.2492C58.8415 13.5974 58.5254 13.9843 58.3146 14.4675C57.7203 15.8332 56.7111 16.7856 55.3824 17.4063C54.5963 17.7742 53.848 18.1735 53.2076 18.7826C52.7951 19.1745 52.2864 19.4651 51.7851 19.8265C51.9506 20.7418 52.2576 21.6869 51.7793 22.65C51.4517 22.5315 51.1661 22.3915 50.8656 22.3355C50.5264 22.2524 50.4194 22.4458 50.4227 22.5249C50.6162 22.5529 50.9076 22.7389 51.0187 22.8187C51.3982 23.0912 51.5834 23.2657 51.9135 23.5868C52.8692 24.5153 52.8964 25.7007 52.4329 26.9602C52.5926 27.0088 52.7318 27.0392 52.8626 27.0919C54.523 27.7604 55.8138 28.7515 56.1348 30.6662C56.2542 31.3766 56.0081 31.9776 55.6788 32.5283C55.3347 33.1045 54.8778 33.577 54.1666 33.8182C53.3804 34.0849 52.6601 34.5443 51.9061 34.9098C51.6484 35.0349 51.3809 35.1403 51.1101 35.2341C50.8993 35.3065 50.5939 35.2769 50.4787 35.416C50.2523 35.6893 49.965 36.0647 49.9947 36.3693C50.0729 37.1776 49.9683 38.084 50.6804 38.7047C50.9487 38.9376 51.2714 39.1196 51.5941 39.2743C51.8468 39.3953 52.0856 39.504 52.0749 39.816C52.0642 40.123 51.837 40.2992 51.5653 40.3338C50.3857 40.4844 49.2011 40.5684 48.168 39.8102C47.763 39.513 47.4131 39.1286 47.4535 38.5688C47.4963 37.9778 47.2345 37.5135 46.9382 37.0394C46.7192 36.6879 46.5076 36.3125 46.3957 35.9182C46.1388 35.0102 46.6328 34.3648 47.5802 34.3212C47.8116 34.3105 48.0462 34.3689 48.2857 34.3961C48.5829 33.8906 48.6726 33.3103 48.5985 32.2435C47.8173 32.2311 47.0633 32.0747 46.3603 32.7283C45.6449 33.3926 45.1922 33.3021 44.4225 32.6806C44.1722 32.4789 43.8668 32.3447 43.5507 32.1587C43.191 32.7365 42.8313 33.1942 42.6148 33.712C42.5036 33.9787 42.6469 34.3516 42.6749 34.6776C42.8658 34.7023 42.9671 34.7204 43.07 34.7278C44.178 34.8044 44.4867 35.1649 44.439 36.2656C44.4266 36.5578 44.3262 36.7545 44.0998 36.9225C43.4231 37.4263 43.0099 38.107 42.7885 38.9146C42.6642 39.3665 42.3489 39.653 41.8945 39.6867C41.1404 39.7427 40.3806 39.7633 39.6258 39.7419C39.4455 39.7369 39.2068 39.5369 39.1195 39.364C39.0726 39.271 39.257 39.0027 39.3977 38.8874C39.8538 38.5137 40.1864 38.065 40.4473 37.5349C41.1791 36.0458 40.8877 34.8505 39.5138 33.9302C38.9919 33.5803 38.4568 33.2477 37.9102 32.939C37.0648 32.4616 36.4063 31.8055 35.9346 30.9626C35.2719 29.7796 35.6563 28.1604 36.7907 27.4171C37.3142 27.0738 37.8666 26.7742 38.4675 26.4194C38.4379 25.6653 38.5507 24.9072 38.9787 24.2091C39.3541 23.5967 39.5764 22.9793 40.2423 22.6475C40.3658 22.5792 40.4761 22.5364 40.6235 22.4607C40.6992 22.422 41.0252 22.3191 40.9997 22.2771C40.9264 22.1553 40.6844 21.9906 40.4465 22.0952C40.1221 22.2252 39.7114 22.3981 39.3804 22.72C39.4447 21.835 39.592 21.1847 39.6529 20.3426C39.3113 20.0734 38.9219 19.7697 38.535 19.4634C37.4674 18.6188 36.3215 17.8524 35.3592 16.9008C34.6471 16.1962 34.1499 15.2652 33.6058 14.4041C33.3193 13.9513 32.9867 13.5809 32.5677 13.2483C31.7083 12.5667 30.7987 11.9189 30.3089 10.8833C30.1467 10.5409 29.8207 10.1737 30.1253 9.79836C30.4505 9.39746 30.895 9.59915 31.2836 9.74979C31.6013 9.87162 31.9026 10.033 32.2261 10.1836Z" fill="black"/>
</svg>
