<svg width="200" height="200" viewBox="0 0 200 200" fill="none" xmlns="http://www.w3.org/2000/svg">
<g clip-path="url(#clip0)">
<path d="M21.0861 115.504C23.1394 115.504 24.9128 115.859 26.4061 116.568C27.9368 117.24 29.2061 118.211 30.2141 119.48C31.2221 120.712 31.9688 122.187 32.4541 123.904C32.9768 125.584 33.2381 127.432 33.2381 129.448C33.2381 131.464 32.9768 133.331 32.4541 135.048C31.9688 136.728 31.2221 138.203 30.2141 139.472C29.2061 140.704 27.9368 141.675 26.4061 142.384C24.9128 143.056 23.1394 143.392 21.0861 143.392C19.0328 143.392 17.2408 143.056 15.7101 142.384C14.2168 141.675 12.9661 140.704 11.9581 139.472C10.9501 138.203 10.1848 136.728 9.66209 135.048C9.17676 133.331 8.93409 131.464 8.93409 129.448C8.93409 127.432 9.17676 125.584 9.66209 123.904C10.1848 122.187 10.9501 120.712 11.9581 119.48C12.9661 118.211 14.2168 117.24 15.7101 116.568C17.2408 115.859 19.0328 115.504 21.0861 115.504ZM21.0861 141.264C22.7661 141.264 24.2034 140.984 25.3981 140.424C26.6301 139.827 27.6194 139.005 28.3661 137.96C29.1501 136.915 29.7288 135.664 30.1021 134.208C30.4754 132.752 30.6621 131.165 30.6621 129.448C30.6621 127.731 30.4754 126.144 30.1021 124.688C29.7288 123.232 29.1501 121.981 28.3661 120.936C27.6194 119.891 26.6301 119.088 25.3981 118.528C24.2034 117.931 22.7661 117.632 21.0861 117.632C19.4061 117.632 17.9501 117.931 16.7181 118.528C15.5234 119.088 14.5341 119.891 13.7501 120.936C13.0034 121.981 12.4434 123.232 12.0701 124.688C11.6968 126.144 11.5101 127.731 11.5101 129.448C11.5101 131.165 11.6968 132.752 12.0701 134.208C12.4434 135.664 13.0034 136.915 13.7501 137.96C14.5341 139.005 15.5234 139.827 16.7181 140.424C17.9501 140.984 19.4061 141.264 21.0861 141.264ZM47.1974 141.264C49.5867 141.264 51.3414 140.816 52.4614 139.92C53.6187 139.024 54.1974 137.792 54.1974 136.224C54.1974 135.328 54.0107 134.563 53.6374 133.928C53.2641 133.293 52.7414 132.733 52.0694 132.248C51.3974 131.763 50.5947 131.352 49.6614 131.016C48.7654 130.68 47.7947 130.344 46.7494 130.008C45.6294 129.672 44.5841 129.299 43.6134 128.888C42.6801 128.44 41.8587 127.917 41.1494 127.32C40.4401 126.685 39.8801 125.957 39.4694 125.136C39.0587 124.315 38.8534 123.325 38.8534 122.168C38.8534 121.048 39.0774 120.077 39.5254 119.256C39.9734 118.397 40.5894 117.688 41.3734 117.128C42.1947 116.568 43.1467 116.157 44.2294 115.896C45.3121 115.635 46.4694 115.504 47.7014 115.504C49.3067 115.504 50.7814 115.672 52.1254 116.008C53.4694 116.344 54.6641 116.736 55.7094 117.184L55.0374 119.256C54.0667 118.808 52.9467 118.435 51.6774 118.136C50.4081 117.837 49.0827 117.688 47.7014 117.688C45.6854 117.688 44.1174 118.043 42.9974 118.752C41.8774 119.461 41.3174 120.525 41.3174 121.944C41.3174 123.587 41.9147 124.856 43.1094 125.752C44.3414 126.611 45.8534 127.283 47.6454 127.768C50.5947 128.627 52.8347 129.691 54.3654 130.96C55.8961 132.229 56.6614 133.984 56.6614 136.224C56.6614 138.464 55.8774 140.237 54.3094 141.544C52.7414 142.813 50.3707 143.448 47.1974 143.448C45.6294 143.448 44.0987 143.28 42.6054 142.944C41.1121 142.571 39.8801 142.16 38.9094 141.712L39.5814 139.696C40.4774 140.107 41.6161 140.48 42.9974 140.816C44.3787 141.115 45.7787 141.264 47.1974 141.264ZM82.9744 115.952H85.5504V143H83.6464L82.9744 137.68C82.6384 138.352 82.1531 139.024 81.5184 139.696C80.8837 140.368 80.1371 140.984 79.2784 141.544C78.4571 142.104 77.5051 142.571 76.4224 142.944C75.3771 143.28 74.2571 143.448 73.0624 143.448C70.1504 143.448 67.9104 142.571 66.3424 140.816C64.8117 139.061 64.0464 136.56 64.0464 133.312V115.952H66.6224V133.312C66.6224 135.813 67.1451 137.755 68.1904 139.136C69.2731 140.48 70.9717 141.152 73.2864 141.152C74.3317 141.152 75.3584 140.965 76.3664 140.592C77.3744 140.219 78.2891 139.752 79.1104 139.192C79.9691 138.595 80.7157 137.923 81.3504 137.176C82.0224 136.429 82.5637 135.664 82.9744 134.88V115.952ZM97.3047 143H94.7287V115.952H96.6327L97.3047 121.272C97.7154 120.6 98.2381 119.928 98.8727 119.256C99.5074 118.547 100.217 117.912 101.001 117.352C101.822 116.792 102.699 116.344 103.633 116.008C104.566 115.672 105.555 115.504 106.601 115.504C108.617 115.504 110.147 116.064 111.193 117.184C112.275 118.267 113.003 119.76 113.377 121.664C114.347 119.947 115.673 118.491 117.353 117.296C119.07 116.101 120.937 115.504 122.953 115.504C125.454 115.504 127.246 116.363 128.329 118.08C129.449 119.797 130.009 122.093 130.009 124.968V143H127.433V124.968C127.433 122.765 127.115 121.029 126.481 119.76C125.846 118.453 124.558 117.8 122.617 117.8C120.899 117.8 119.238 118.379 117.633 119.536C116.027 120.656 114.683 122.149 113.601 124.016C113.601 124.203 113.601 124.371 113.601 124.52C113.638 124.632 113.657 124.781 113.657 124.968V143H111.081V124.968C111.081 122.765 110.763 121.029 110.129 119.76C109.494 118.453 108.206 117.8 106.265 117.8C105.331 117.8 104.435 117.968 103.577 118.304C102.718 118.64 101.897 119.107 101.113 119.704C100.366 120.264 99.6567 120.936 98.9847 121.72C98.3501 122.467 97.7901 123.251 97.3047 124.072V143ZM149.328 115.504C151.382 115.504 153.155 115.859 154.648 116.568C156.179 117.24 157.448 118.211 158.456 119.48C159.464 120.712 160.211 122.187 160.696 123.904C161.219 125.584 161.48 127.432 161.48 129.448C161.48 131.464 161.219 133.331 160.696 135.048C160.211 136.728 159.464 138.203 158.456 139.472C157.448 140.704 156.179 141.675 154.648 142.384C153.155 143.056 151.382 143.392 149.328 143.392C147.275 143.392 145.483 143.056 143.952 142.384C142.459 141.675 141.208 140.704 140.2 139.472C139.192 138.203 138.427 136.728 137.904 135.048C137.419 133.331 137.176 131.464 137.176 129.448C137.176 127.432 137.419 125.584 137.904 123.904C138.427 122.187 139.192 120.712 140.2 119.48C141.208 118.211 142.459 117.24 143.952 116.568C145.483 115.859 147.275 115.504 149.328 115.504ZM149.328 141.264C151.008 141.264 152.446 140.984 153.64 140.424C154.872 139.827 155.862 139.005 156.608 137.96C157.392 136.915 157.971 135.664 158.344 134.208C158.718 132.752 158.904 131.165 158.904 129.448C158.904 127.731 158.718 126.144 158.344 124.688C157.971 123.232 157.392 121.981 156.608 120.936C155.862 119.891 154.872 119.088 153.64 118.528C152.446 117.931 151.008 117.632 149.328 117.632C147.648 117.632 146.192 117.931 144.96 118.528C143.766 119.088 142.776 119.891 141.992 120.936C141.246 121.981 140.686 123.232 140.312 124.688C139.939 126.144 139.752 127.731 139.752 129.448C139.752 131.165 139.939 132.752 140.312 134.208C140.686 135.664 141.246 136.915 141.992 137.96C142.776 139.005 143.766 139.827 144.96 140.424C146.192 140.984 147.648 141.264 149.328 141.264ZM187.592 115.952H190.168V143H188.264L187.592 137.68C187.256 138.352 186.77 139.024 186.136 139.696C185.501 140.368 184.754 140.984 183.896 141.544C183.074 142.104 182.122 142.571 181.04 142.944C179.994 143.28 178.874 143.448 177.68 143.448C174.768 143.448 172.528 142.571 170.96 140.816C169.429 139.061 168.664 136.56 168.664 133.312V115.952H171.24V133.312C171.24 135.813 171.762 137.755 172.808 139.136C173.89 140.48 175.589 141.152 177.904 141.152C178.949 141.152 179.976 140.965 180.984 140.592C181.992 140.219 182.906 139.752 183.728 139.192C184.586 138.595 185.333 137.923 185.968 137.176C186.64 136.429 187.181 135.664 187.592 134.88V115.952ZM24.4312 170.952H32.7752V173.08H24.4312V198H21.9112V173.08H17.2072V170.952H21.9112V170.392C21.9112 168.973 22.1166 167.629 22.5272 166.36C22.9379 165.053 23.5726 163.915 24.4312 162.944C25.2899 161.973 26.3912 161.208 27.7352 160.648C29.1166 160.088 30.7406 159.808 32.6072 159.808C34.2499 159.808 35.8739 159.957 37.4792 160.256C39.1219 160.517 40.5592 160.853 41.7912 161.264V198H39.2152V162.72C38.5059 162.533 37.5726 162.365 36.4152 162.216C35.2952 162.067 34.1752 161.992 33.0552 161.992C31.3752 161.992 29.9752 162.216 28.8552 162.664C27.7352 163.112 26.8392 163.709 26.1672 164.456C25.5326 165.203 25.0846 166.099 24.8232 167.144C24.5619 168.189 24.4312 169.291 24.4312 170.448V170.952ZM61.3908 170.504C63.4441 170.504 65.2174 170.859 66.7108 171.568C68.2414 172.24 69.5108 173.211 70.5188 174.48C71.5268 175.712 72.2734 177.187 72.7588 178.904C73.2814 180.584 73.5428 182.432 73.5428 184.448C73.5428 186.464 73.2814 188.331 72.7588 190.048C72.2734 191.728 71.5268 193.203 70.5188 194.472C69.5108 195.704 68.2414 196.675 66.7108 197.384C65.2174 198.056 63.4441 198.392 61.3908 198.392C59.3374 198.392 57.5454 198.056 56.0148 197.384C54.5214 196.675 53.2708 195.704 52.2628 194.472C51.2548 193.203 50.4894 191.728 49.9668 190.048C49.4814 188.331 49.2388 186.464 49.2388 184.448C49.2388 182.432 49.4814 180.584 49.9668 178.904C50.4894 177.187 51.2548 175.712 52.2628 174.48C53.2708 173.211 54.5214 172.24 56.0148 171.568C57.5454 170.859 59.3374 170.504 61.3908 170.504ZM61.3908 196.264C63.0708 196.264 64.5081 195.984 65.7028 195.424C66.9348 194.827 67.9241 194.005 68.6708 192.96C69.4548 191.915 70.0334 190.664 70.4068 189.208C70.7801 187.752 70.9668 186.165 70.9668 184.448C70.9668 182.731 70.7801 181.144 70.4068 179.688C70.0334 178.232 69.4548 176.981 68.6708 175.936C67.9241 174.891 66.9348 174.088 65.7028 173.528C64.5081 172.931 63.0708 172.632 61.3908 172.632C59.7108 172.632 58.2548 172.931 57.0228 173.528C55.8281 174.088 54.8388 174.891 54.0548 175.936C53.3081 176.981 52.7481 178.232 52.3748 179.688C52.0014 181.144 51.8148 182.731 51.8148 184.448C51.8148 186.165 52.0014 187.752 52.3748 189.208C52.7481 190.664 53.3081 191.915 54.0548 192.96C54.8388 194.005 55.8281 194.827 57.0228 195.424C58.2548 195.984 59.7108 196.264 61.3908 196.264ZM96.2941 170.952L101.67 187.752C102.043 188.872 102.398 190.123 102.734 191.504C103.07 192.848 103.35 194.155 103.574 195.424H103.686C103.723 194.939 103.779 194.36 103.854 193.688C103.966 193.016 104.078 192.288 104.19 191.504C104.339 190.72 104.489 189.936 104.638 189.152C104.825 188.331 105.011 187.528 105.198 186.744L109.23 170.952H111.638L104.75 198H102.678L96.0701 177.504C95.8461 176.757 95.6221 175.992 95.3981 175.208C95.1741 174.387 94.9874 173.621 94.8381 172.912H94.7261C94.5768 173.621 94.3901 174.387 94.1661 175.208C93.9421 175.992 93.7181 176.757 93.4941 177.504L86.8861 198H84.8141L77.9261 170.952H80.3341L84.3661 186.744C84.5528 187.528 84.7208 188.331 84.8701 189.152C85.0568 189.936 85.2061 190.72 85.3181 191.504C85.4674 192.288 85.5794 193.016 85.6541 193.688C85.7288 194.36 85.8034 194.939 85.8781 195.424H85.9901C86.2141 194.155 86.4941 192.848 86.8301 191.504C87.1661 190.123 87.5208 188.872 87.8941 187.752L93.2701 170.952H96.2941ZM118.532 185.68C118.682 188.816 119.596 191.373 121.276 193.352C122.956 195.293 125.495 196.264 128.892 196.264C130.311 196.264 131.618 196.077 132.812 195.704C134.044 195.331 135.127 194.883 136.06 194.36L136.732 196.32C135.799 196.88 134.642 197.365 133.26 197.776C131.916 198.187 130.423 198.392 128.78 198.392C126.652 198.392 124.786 198.056 123.18 197.384C121.575 196.675 120.231 195.704 119.148 194.472C118.103 193.203 117.319 191.728 116.796 190.048C116.274 188.331 116.012 186.464 116.012 184.448C116.012 182.432 116.255 180.584 116.74 178.904C117.263 177.187 118.028 175.712 119.036 174.48C120.044 173.211 121.295 172.24 122.788 171.568C124.319 170.859 126.092 170.504 128.108 170.504C131.394 170.504 133.895 171.437 135.612 173.304C137.33 175.171 138.188 177.803 138.188 181.2C138.188 181.909 138.114 182.693 137.964 183.552C137.852 184.411 137.703 185.12 137.516 185.68H118.532ZM128.108 172.576C126.428 172.576 124.991 172.856 123.796 173.416C122.602 173.976 121.631 174.741 120.884 175.712C120.138 176.683 119.578 177.859 119.204 179.24C118.831 180.621 118.626 182.115 118.588 183.72H135.612C135.687 183.384 135.743 182.992 135.78 182.544C135.818 182.059 135.836 181.611 135.836 181.2C135.836 178.251 135.202 176.085 133.932 174.704C132.7 173.285 130.759 172.576 128.108 172.576ZM148.055 198H145.479V170.952H147.383L148.055 176.272C148.503 175.488 149.007 174.76 149.567 174.088C150.164 173.379 150.817 172.763 151.527 172.24C152.236 171.717 153.001 171.307 153.823 171.008C154.644 170.672 155.503 170.504 156.399 170.504C157.183 170.504 157.873 170.597 158.471 170.784C159.105 170.933 159.628 171.12 160.039 171.344L159.367 173.808C158.993 173.584 158.545 173.397 158.023 173.248C157.537 173.099 156.903 173.024 156.119 173.024C154.327 173.024 152.777 173.603 151.471 174.76C150.164 175.917 149.025 177.355 148.055 179.072V198ZM172.432 196.264C174.821 196.264 176.576 195.816 177.696 194.92C178.853 194.024 179.432 192.792 179.432 191.224C179.432 190.328 179.245 189.563 178.872 188.928C178.498 188.293 177.976 187.733 177.304 187.248C176.632 186.763 175.829 186.352 174.896 186.016C174 185.68 173.029 185.344 171.984 185.008C170.864 184.672 169.818 184.299 168.848 183.888C167.914 183.44 167.093 182.917 166.384 182.32C165.674 181.685 165.114 180.957 164.704 180.136C164.293 179.315 164.088 178.325 164.088 177.168C164.088 176.048 164.312 175.077 164.76 174.256C165.208 173.397 165.824 172.688 166.608 172.128C167.429 171.568 168.381 171.157 169.464 170.896C170.546 170.635 171.704 170.504 172.936 170.504C174.541 170.504 176.016 170.672 177.36 171.008C178.704 171.344 179.898 171.736 180.944 172.184L180.272 174.256C179.301 173.808 178.181 173.435 176.912 173.136C175.642 172.837 174.317 172.688 172.936 172.688C170.92 172.688 169.352 173.043 168.232 173.752C167.112 174.461 166.552 175.525 166.552 176.944C166.552 178.587 167.149 179.856 168.344 180.752C169.576 181.611 171.088 182.283 172.88 182.768C175.829 183.627 178.069 184.691 179.6 185.96C181.13 187.229 181.896 188.984 181.896 191.224C181.896 193.464 181.112 195.237 179.544 196.544C177.976 197.813 175.605 198.448 172.432 198.448C170.864 198.448 169.333 198.28 167.84 197.944C166.346 197.571 165.114 197.16 164.144 196.712L164.816 194.696C165.712 195.107 166.85 195.48 168.232 195.816C169.613 196.115 171.013 196.264 172.432 196.264Z" fill="black"/>
<circle cx="101" cy="46" r="43" stroke="black" stroke-width="2"/>
<path fill-rule="evenodd" clip-rule="evenodd" d="M95.5025 40.6321C97.1444 40.6952 98.6657 41.4659 99.9803 42.7767C99.5161 43.2166 99.0716 43.7176 98.6504 44.2735C97.5892 43.1872 96.4693 42.6707 95.4257 42.6306C93.7366 42.5658 91.7528 43.7296 90.0136 46.5612C89.3708 47.6078 88.7991 48.8308 88.327 50.1943C87.7202 49.8286 87.1303 49.4856 86.5669 49.1743C88.4746 43.9395 91.8225 40.4908 95.5025 40.6321Z" fill="black"/>
<path fill-rule="evenodd" clip-rule="evenodd" d="M113.52 50.8846C112.142 44.9564 108.913 40.7825 104.998 40.6321C100.201 40.4479 95.9692 46.3627 94.7546 54.3816C95.3922 54.8169 96.0118 55.2432 96.6024 55.6502C97.0244 52.0208 98.0947 48.8641 99.509 46.5612C101.248 43.7296 103.232 42.5658 104.921 42.6306C106.61 42.6955 108.499 44.0081 110.016 46.9648C110.733 48.3637 111.313 50.0417 111.7 51.9194C112.336 51.5374 112.947 51.1884 113.52 50.8846Z" fill="black"/>
<path fill-rule="evenodd" clip-rule="evenodd" d="M77.3364 59.332C77.3619 59.3498 77.3875 59.3678 77.4133 59.3858C78.0341 59.8201 78.7192 60.2992 79.4625 60.8069C79.3566 59.9292 79.3083 59.0561 79.317 58.2005C79.3571 54.2754 80.5749 51.1314 82.4261 49.4963C82.7547 49.5747 83.245 49.7509 83.905 50.056C85.2998 50.7011 87.092 51.7512 89.0312 52.985C90.9557 54.2094 92.9605 55.5728 94.7698 56.8169C95.1596 57.0849 95.5419 57.3486 95.913 57.6045L95.9142 57.6053L95.9144 57.6054C97.0985 58.4219 98.169 59.16 99.005 59.7125C99.1501 59.9091 99.2919 60.1053 99.4302 60.301C99.9123 59.9679 100.463 59.5791 101.066 59.1508C100.85 58.845 100.627 58.5392 100.397 58.2337C99.5496 57.6826 98.3937 56.8855 97.0667 55.9706C91.5848 52.1908 83.1847 46.3988 81.5641 47.6198C78.5908 49.8598 77.1232 54.404 77.3364 59.332ZM82.147 49.4521C82.146 49.4509 82.1605 49.4502 82.1933 49.4535C82.1644 49.455 82.148 49.4533 82.147 49.4521Z" fill="black"/>
<path fill-rule="evenodd" clip-rule="evenodd" d="M82.7964 77.763C88.5442 80.8806 94.4008 81.9783 98.1461 80.9681C97.9184 80.8315 97.6958 80.684 97.4788 80.5257C96.9614 80.1482 96.5026 79.7369 96.1007 79.2949C95.6297 79.3331 95.1112 79.3437 94.5422 79.3211C91.5029 79.2005 87.6425 78.1163 83.7499 76.005C80.2063 74.083 77.6353 70.4041 76.215 66.5921C75.5118 64.7046 75.1214 62.8618 75.0242 61.3046C74.9979 60.8826 74.994 60.4973 75.0077 60.1488L75.0898 60.2052C75.4353 60.4431 75.8204 60.7125 76.2401 61.006L76.2402 61.0061C77.2924 61.742 78.5618 62.6299 79.9688 63.5544C83.681 65.9938 88.591 68.8546 94.1479 70.5846C94.2718 69.9499 94.4384 69.3024 94.6464 68.645C87.3922 66.3658 81.206 62.0387 77.4133 59.3858L77.4133 59.3858C75.5129 58.0566 74.2135 57.1476 73.6817 57.1272C71.4916 61.165 74.5914 73.3127 82.7964 77.763ZM73.2917 59.0756C73.2799 59.0717 73.2736 59.0691 73.2735 59.0688C73.2733 59.0685 73.2792 59.0705 73.2917 59.0756Z" fill="black"/>
<path d="M99.5531 61.4291C96.8164 65.2178 95.2269 68.9408 94.9333 72.1306C94.6402 75.3152 95.63 77.9391 98.0681 79.7178C100.507 81.4969 103.815 81.7674 107.292 80.5935C110.766 79.4205 114.318 76.8251 117.074 73.0482C119.791 69.323 121.033 64.5962 120.924 60.3162C120.814 56.0294 119.364 52.42 116.976 50.6423C116.938 50.6389 116.807 50.6313 116.527 50.6952C116.094 50.7939 115.506 51.0174 114.778 51.3677C113.331 52.0641 111.51 53.1718 109.581 54.4409C107.66 55.7051 105.664 57.108 103.873 58.3808C103.482 58.6583 103.101 58.9302 102.731 59.1934C101.491 60.0773 100.389 60.8624 99.5531 61.4291Z" stroke="black" stroke-width="2"/>
<path fill-rule="evenodd" clip-rule="evenodd" d="M96.2622 76.4676C96.3692 77.2214 96.6167 78.0136 96.9836 78.8349C98.8575 83.0288 107.285 83.3418 115.807 79.5341C124.329 75.7264 128.352 63.8522 126.478 59.6583C125.946 59.6379 124.581 60.4445 122.584 61.624L122.584 61.624C122.237 61.8293 121.87 62.046 121.485 62.2715C121.301 63.1877 121.06 64.1012 120.759 65.0004C121.822 64.3975 122.791 63.8248 123.63 63.3295L123.63 63.3295C124.071 63.069 124.475 62.8299 124.838 62.6192L124.924 62.5693C124.911 62.9178 124.878 63.3017 124.819 63.7204C124.603 65.2656 124.072 67.073 123.226 68.901C121.518 72.5928 118.672 76.0636 114.991 77.7081C110.948 79.5145 107.016 80.2994 103.977 80.1865C101.247 80.0851 99.7337 79.3119 99.0711 78.4521C98.5142 78.2008 97.9817 77.8926 97.4787 77.5256C97.0294 77.1978 96.6243 76.8445 96.2622 76.4676ZM126.718 61.6309C126.73 61.6279 126.736 61.6259 126.736 61.6256C126.736 61.6253 126.73 61.6268 126.718 61.6309Z" fill="black"/>
<path d="M87.2261 12.1836C87.3282 12 87.4253 11.8247 87.5875 11.5333C88.2699 12.2717 88.912 12.9508 89.5302 13.6505C89.6389 13.7732 89.7195 13.9987 89.6883 14.1519C89.5829 14.6696 89.8743 14.9166 90.248 15.157C91.5034 15.9645 92.7497 16.7861 94.0034 17.5953C94.1072 17.6619 94.2422 17.713 94.364 17.7163C95.5905 17.7517 96.8171 17.7764 98.14 17.8052C97.9506 17.2421 97.8609 16.6017 97.5448 16.1053C96.5874 14.5997 97.1744 12.6808 98.8578 12.1062C98.9063 12.0898 98.9508 12.0601 98.9722 12.0494C98.9574 11.7481 98.8701 11.4403 98.9434 11.1785C99.1599 10.4088 99.4241 10.329 100.125 10.7628C100.535 10.5463 100.929 10.4055 101.428 10.7035C101.653 10.8385 102.081 10.6764 102.404 10.5981C102.958 10.464 103.063 10.4944 103.129 11.0525C103.168 11.3744 103.109 11.7086 103.091 12.0931C103.831 12.4256 104.421 12.9895 104.725 13.8201C105.025 14.6384 104.991 15.4113 104.42 16.1168C104.056 16.5671 103.985 17.0898 104.014 17.6652C105.317 17.6652 106.567 17.7097 107.812 17.6504C108.712 17.6076 109.549 17.2709 110.229 16.6568C111.027 15.9365 111.802 15.1907 112.569 14.4383C112.704 14.3066 112.816 14.0942 112.833 13.9082C112.94 12.7812 113.59 11.9301 114.259 10.9505C114.411 11.2295 114.522 11.4337 114.695 11.749C114.881 11.516 115.028 11.2946 115.212 11.111C115.503 10.8204 115.844 10.7595 116.212 10.9859C116.553 11.1958 116.707 11.4954 116.542 11.9358C116.314 12.545 116.067 13.169 115.701 13.6991C115.303 14.2745 114.807 14.8055 114.266 15.2492C113.841 15.5974 113.525 15.9843 113.315 16.4675C112.72 17.8332 111.711 18.7856 110.382 19.4063C109.596 19.7742 108.848 20.1735 108.208 20.7826C107.795 21.1745 107.286 21.4651 106.785 21.8265C106.951 22.7418 107.258 23.6869 106.779 24.65C106.452 24.5315 106.166 24.3915 105.866 24.3355C105.526 24.2524 105.419 24.4458 105.423 24.5249C105.616 24.5529 105.908 24.7389 106.019 24.8187C106.398 25.0912 106.583 25.2657 106.914 25.5868C107.869 26.5153 107.896 27.7007 107.433 28.9602C107.593 29.0088 107.732 29.0392 107.863 29.0919C109.523 29.7604 110.814 30.7515 111.135 32.6662C111.254 33.3766 111.008 33.9776 110.679 34.5283C110.335 35.1045 109.878 35.577 109.167 35.8182C108.38 36.0849 107.66 36.5443 106.906 36.9098C106.648 37.0349 106.381 37.1403 106.11 37.2341C105.899 37.3065 105.594 37.2769 105.479 37.416C105.252 37.6893 104.965 38.0647 104.995 38.3693C105.073 39.1776 104.968 40.084 105.68 40.7047C105.949 40.9376 106.271 41.1196 106.594 41.2743C106.847 41.3953 107.086 41.504 107.075 41.816C107.064 42.123 106.837 42.2992 106.565 42.3338C105.386 42.4844 104.201 42.5684 103.168 41.8102C102.763 41.513 102.413 41.1286 102.453 40.5688C102.496 39.9778 102.235 39.5135 101.938 39.0394C101.719 38.6879 101.508 38.3125 101.396 37.9182C101.139 37.0102 101.633 36.3648 102.58 36.3212C102.812 36.3105 103.046 36.3689 103.286 36.3961C103.583 35.8906 103.673 35.3103 103.599 34.2435C102.817 34.2311 102.063 34.0747 101.36 34.7283C100.645 35.3926 100.192 35.3021 99.4225 34.6806C99.1722 34.4789 98.8668 34.3447 98.5507 34.1587C98.191 34.7365 97.8313 35.1942 97.6148 35.712C97.5036 35.9787 97.6469 36.3516 97.6749 36.6776C97.8658 36.7023 97.9671 36.7204 98.07 36.7278C99.178 36.8044 99.4867 37.1649 99.439 38.2656C99.4266 38.5578 99.3262 38.7545 99.0998 38.9225C98.4231 39.4263 98.0099 40.107 97.7885 40.9146C97.6642 41.3665 97.3489 41.653 96.8945 41.6867C96.1404 41.7427 95.3806 41.7633 94.6258 41.7419C94.4455 41.7369 94.2068 41.5369 94.1195 41.364C94.0726 41.271 94.257 41.0027 94.3977 40.8874C94.8538 40.5137 95.1864 40.065 95.4473 39.5349C96.1791 38.0458 95.8877 36.8505 94.5138 35.9302C93.9919 35.5803 93.4568 35.2477 92.9102 34.939C92.0648 34.4616 91.4063 33.8055 90.9346 32.9626C90.2719 31.7796 90.6563 30.1604 91.7907 29.4171C92.3142 29.0738 92.8666 28.7742 93.4675 28.4194C93.4379 27.6653 93.5507 26.9072 93.9787 26.2091C94.3541 25.5967 94.5764 24.9793 95.2423 24.6475C95.3658 24.5792 95.4761 24.5364 95.6235 24.4607C95.6992 24.422 96.0252 24.3191 95.9997 24.2771C95.9264 24.1553 95.6844 23.9906 95.4465 24.0952C95.1221 24.2252 94.7114 24.3981 94.3804 24.72C94.4447 23.835 94.592 23.1847 94.6529 22.3426C94.3113 22.0734 93.9219 21.7697 93.535 21.4634C92.4674 20.6188 91.3215 19.8524 90.3592 18.9008C89.6471 18.1962 89.1499 17.2652 88.6058 16.4041C88.3193 15.9513 87.9867 15.5809 87.5677 15.2483C86.7083 14.5667 85.7987 13.9189 85.3089 12.8833C85.1467 12.5409 84.8207 12.1737 85.1253 11.7984C85.4505 11.3975 85.895 11.5991 86.2836 11.7498C86.6013 11.8716 86.9026 12.033 87.2261 12.1836Z" fill="black"/>
</g>
<defs>
<clipPath id="clip0">
<rect width="200" height="200" fill="white"/>
</clipPath>
</defs>
</svg>
